<mxfile>
    <diagram id="IcBVTlkiVaEtFfMCiGj1" name="MCD">
        <mxGraphModel dx="3691" dy="2346" grid="1" gridSize="10" guides="1" tooltips="1" connect="1" arrows="1" fold="1" page="1" pageScale="1" pageWidth="827" pageHeight="1169" math="0" shadow="0">
            <root>
                <mxCell id="0"/>
                <mxCell id="1" parent="0"/>
                <mxCell id="22" value="Rôles" style="swimlane;fontStyle=1;childLayout=stackLayout;horizontal=1;startSize=26;horizontalStack=0;resizeParent=1;resizeParentMax=0;resizeLast=0;collapsible=1;marginBottom=0;align=center;fontSize=14;rounded=0;swimlaneFillColor=#ffffff;" parent="1" vertex="1">
                    <mxGeometry x="687" y="-570" width="216" height="70" as="geometry"/>
                </mxCell>
                <mxCell id="23" value="" style="shape=table;html=1;whiteSpace=wrap;startSize=0;container=1;collapsible=0;childLayout=tableLayout;fillColor=none;strokeColor=none;" parent="22" vertex="1">
                    <mxGeometry y="26" width="216" height="44" as="geometry"/>
                </mxCell>
                <mxCell id="24" value="" style="shape=partialRectangle;html=1;whiteSpace=wrap;collapsible=0;dropTarget=0;pointerEvents=0;fillColor=none;top=0;left=0;bottom=0;right=0;points=[[0,0.5],[1,0.5]];portConstraint=eastwest;" parent="23" vertex="1">
                    <mxGeometry width="216" height="22" as="geometry"/>
                </mxCell>
                <mxCell id="25" value="Nom" style="shape=partialRectangle;html=1;whiteSpace=wrap;connectable=0;fillColor=none;top=0;left=0;bottom=0;right=0;overflow=hidden;strokeColor=none;align=left;fontStyle=4" parent="24" vertex="1">
                    <mxGeometry width="108" height="22" as="geometry"/>
                </mxCell>
                <mxCell id="26" value="texte" style="shape=partialRectangle;html=1;whiteSpace=wrap;connectable=0;fillColor=none;top=0;left=0;bottom=0;right=0;overflow=hidden;align=right;" parent="24" vertex="1">
                    <mxGeometry x="108" width="108" height="22" as="geometry"/>
                </mxCell>
                <mxCell id="27" value="" style="shape=partialRectangle;html=1;whiteSpace=wrap;collapsible=0;dropTarget=0;pointerEvents=0;fillColor=none;top=0;left=0;bottom=0;right=0;points=[[0,0.5],[1,0.5]];portConstraint=eastwest;" parent="23" vertex="1">
                    <mxGeometry y="22" width="216" height="22" as="geometry"/>
                </mxCell>
                <mxCell id="28" value="Description" style="shape=partialRectangle;html=1;whiteSpace=wrap;connectable=0;fillColor=none;top=0;left=0;bottom=0;right=0;overflow=hidden;align=left;" parent="27" vertex="1">
                    <mxGeometry width="108" height="22" as="geometry"/>
                </mxCell>
                <mxCell id="29" value="texte" style="shape=partialRectangle;html=1;whiteSpace=wrap;connectable=0;fillColor=none;top=0;left=0;bottom=0;right=0;overflow=hidden;align=right;" parent="27" vertex="1">
                    <mxGeometry x="108" width="108" height="22" as="geometry"/>
                </mxCell>
                <mxCell id="36" value="Assigner" style="swimlane;fontStyle=1;childLayout=stackLayout;horizontal=1;startSize=26;horizontalStack=0;resizeParent=1;resizeParentMax=0;resizeLast=0;collapsible=1;marginBottom=0;align=center;fontSize=14;rounded=1;swimlaneFillColor=#ffffff;" parent="1" vertex="1">
                    <mxGeometry x="715" y="-689" width="160" height="50" as="geometry"/>
                </mxCell>
                <mxCell id="37" value="" style="shape=table;html=1;whiteSpace=wrap;startSize=0;container=1;collapsible=0;childLayout=tableLayout;fillColor=none;strokeColor=none;" parent="36" vertex="1">
                    <mxGeometry y="26" width="160" height="24" as="geometry"/>
                </mxCell>
                <mxCell id="38" value="" style="shape=partialRectangle;html=1;whiteSpace=wrap;collapsible=0;dropTarget=0;pointerEvents=0;fillColor=none;top=0;left=0;bottom=0;right=0;points=[[0,0.5],[1,0.5]];portConstraint=eastwest;" parent="37" vertex="1">
                    <mxGeometry width="160" height="24" as="geometry"/>
                </mxCell>
                <mxCell id="39" value="" style="shape=partialRectangle;html=1;whiteSpace=wrap;connectable=0;fillColor=none;top=0;left=0;bottom=0;right=0;overflow=hidden;strokeColor=none;" parent="38" vertex="1">
                    <mxGeometry width="80" height="24" as="geometry"/>
                </mxCell>
                <mxCell id="40" value="" style="shape=partialRectangle;html=1;whiteSpace=wrap;connectable=0;fillColor=none;top=0;left=0;bottom=0;right=0;overflow=hidden;" parent="38" vertex="1">
                    <mxGeometry x="80" width="80" height="24" as="geometry"/>
                </mxCell>
                <mxCell id="41" value="Utilisateur" style="swimlane;fontStyle=1;childLayout=stackLayout;horizontal=1;startSize=26;horizontalStack=0;resizeParent=1;resizeParentMax=0;resizeLast=0;collapsible=1;marginBottom=0;align=center;fontSize=14;rounded=0;swimlaneFillColor=#ffffff;" parent="1" vertex="1">
                    <mxGeometry x="422" y="-830" width="216" height="136" as="geometry"/>
                </mxCell>
                <mxCell id="42" value="" style="shape=table;html=1;whiteSpace=wrap;startSize=0;container=1;collapsible=0;childLayout=tableLayout;fillColor=none;strokeColor=none;" parent="41" vertex="1">
                    <mxGeometry y="26" width="216" height="110" as="geometry"/>
                </mxCell>
                <mxCell id="43" value="" style="shape=partialRectangle;html=1;whiteSpace=wrap;collapsible=0;dropTarget=0;pointerEvents=0;fillColor=none;top=0;left=0;bottom=0;right=0;points=[[0,0.5],[1,0.5]];portConstraint=eastwest;" parent="42" vertex="1">
                    <mxGeometry width="216" height="22" as="geometry"/>
                </mxCell>
                <mxCell id="44" value="Nom" style="shape=partialRectangle;html=1;whiteSpace=wrap;connectable=0;fillColor=none;top=0;left=0;bottom=0;right=0;overflow=hidden;strokeColor=none;align=left;fontStyle=4" parent="43" vertex="1">
                    <mxGeometry width="108" height="22" as="geometry"/>
                </mxCell>
                <mxCell id="45" value="texte" style="shape=partialRectangle;html=1;whiteSpace=wrap;connectable=0;fillColor=none;top=0;left=0;bottom=0;right=0;overflow=hidden;align=right;" parent="43" vertex="1">
                    <mxGeometry x="108" width="108" height="22" as="geometry"/>
                </mxCell>
                <mxCell id="46" value="" style="shape=partialRectangle;html=1;whiteSpace=wrap;collapsible=0;dropTarget=0;pointerEvents=0;fillColor=none;top=0;left=0;bottom=0;right=0;points=[[0,0.5],[1,0.5]];portConstraint=eastwest;" parent="42" vertex="1">
                    <mxGeometry y="22" width="216" height="22" as="geometry"/>
                </mxCell>
                <mxCell id="47" value="&lt;u&gt;Prénom&lt;/u&gt;" style="shape=partialRectangle;html=1;whiteSpace=wrap;connectable=0;fillColor=none;top=0;left=0;bottom=0;right=0;overflow=hidden;align=left;" parent="46" vertex="1">
                    <mxGeometry width="108" height="22" as="geometry"/>
                </mxCell>
                <mxCell id="48" value="texte" style="shape=partialRectangle;html=1;whiteSpace=wrap;connectable=0;fillColor=none;top=0;left=0;bottom=0;right=0;overflow=hidden;align=right;" parent="46" vertex="1">
                    <mxGeometry x="108" width="108" height="22" as="geometry"/>
                </mxCell>
                <mxCell id="49" style="shape=partialRectangle;html=1;whiteSpace=wrap;collapsible=0;dropTarget=0;pointerEvents=0;fillColor=none;top=0;left=0;bottom=0;right=0;points=[[0,0.5],[1,0.5]];portConstraint=eastwest;" parent="42" vertex="1">
                    <mxGeometry y="44" width="216" height="22" as="geometry"/>
                </mxCell>
                <mxCell id="50" value="Email" style="shape=partialRectangle;html=1;whiteSpace=wrap;connectable=0;fillColor=none;top=0;left=0;bottom=0;right=0;overflow=hidden;align=left;" parent="49" vertex="1">
                    <mxGeometry width="108" height="22" as="geometry"/>
                </mxCell>
                <mxCell id="51" value="texte" style="shape=partialRectangle;html=1;whiteSpace=wrap;connectable=0;fillColor=none;top=0;left=0;bottom=0;right=0;overflow=hidden;align=right;" parent="49" vertex="1">
                    <mxGeometry x="108" width="108" height="22" as="geometry"/>
                </mxCell>
                <mxCell id="55" style="shape=partialRectangle;html=1;whiteSpace=wrap;collapsible=0;dropTarget=0;pointerEvents=0;fillColor=none;top=0;left=0;bottom=0;right=0;points=[[0,0.5],[1,0.5]];portConstraint=eastwest;" parent="42" vertex="1">
                    <mxGeometry y="66" width="216" height="22" as="geometry"/>
                </mxCell>
                <mxCell id="56" value="Pseudo" style="shape=partialRectangle;html=1;whiteSpace=wrap;connectable=0;fillColor=none;top=0;left=0;bottom=0;right=0;overflow=hidden;align=left;" parent="55" vertex="1">
                    <mxGeometry width="108" height="22" as="geometry"/>
                </mxCell>
                <mxCell id="57" value="texte" style="shape=partialRectangle;html=1;whiteSpace=wrap;connectable=0;fillColor=none;top=0;left=0;bottom=0;right=0;overflow=hidden;align=right;" parent="55" vertex="1">
                    <mxGeometry x="108" width="108" height="22" as="geometry"/>
                </mxCell>
                <mxCell id="52" style="shape=partialRectangle;html=1;whiteSpace=wrap;collapsible=0;dropTarget=0;pointerEvents=0;fillColor=none;top=0;left=0;bottom=0;right=0;points=[[0,0.5],[1,0.5]];portConstraint=eastwest;" parent="42" vertex="1">
                    <mxGeometry y="88" width="216" height="22" as="geometry"/>
                </mxCell>
                <mxCell id="53" value="Password" style="shape=partialRectangle;html=1;whiteSpace=wrap;connectable=0;fillColor=none;top=0;left=0;bottom=0;right=0;overflow=hidden;align=left;" parent="52" vertex="1">
                    <mxGeometry width="108" height="22" as="geometry"/>
                </mxCell>
                <mxCell id="54" value="texte" style="shape=partialRectangle;html=1;whiteSpace=wrap;connectable=0;fillColor=none;top=0;left=0;bottom=0;right=0;overflow=hidden;align=right;" parent="52" vertex="1">
                    <mxGeometry x="108" width="108" height="22" as="geometry"/>
                </mxCell>
                <mxCell id="58" value="" style="endArrow=none;html=1;" parent="1" source="36" target="41" edge="1">
                    <mxGeometry width="50" height="50" relative="1" as="geometry">
                        <mxPoint x="-6" y="-730" as="sourcePoint"/>
                        <mxPoint x="44" y="-780" as="targetPoint"/>
                    </mxGeometry>
                </mxCell>
                <mxCell id="59" value="" style="endArrow=none;html=1;" parent="1" source="36" target="22" edge="1">
                    <mxGeometry width="50" height="50" relative="1" as="geometry">
                        <mxPoint x="708" y="-470" as="sourcePoint"/>
                        <mxPoint x="708" y="-534" as="targetPoint"/>
                    </mxGeometry>
                </mxCell>
                <mxCell id="60" value="Articles" style="swimlane;fontStyle=1;childLayout=stackLayout;horizontal=1;startSize=26;horizontalStack=0;resizeParent=1;resizeParentMax=0;resizeLast=0;collapsible=1;marginBottom=0;align=center;fontSize=14;rounded=0;swimlaneFillColor=#ffffff;" parent="1" vertex="1">
                    <mxGeometry x="687" y="-1120" width="216" height="92" as="geometry"/>
                </mxCell>
                <mxCell id="61" value="" style="shape=table;html=1;whiteSpace=wrap;startSize=0;container=1;collapsible=0;childLayout=tableLayout;fillColor=none;strokeColor=none;" parent="60" vertex="1">
                    <mxGeometry y="26" width="216" height="66" as="geometry"/>
                </mxCell>
                <mxCell id="62" value="" style="shape=partialRectangle;html=1;whiteSpace=wrap;collapsible=0;dropTarget=0;pointerEvents=0;fillColor=none;top=0;left=0;bottom=0;right=0;points=[[0,0.5],[1,0.5]];portConstraint=eastwest;" parent="61" vertex="1">
                    <mxGeometry width="216" height="22" as="geometry"/>
                </mxCell>
                <mxCell id="63" value="Titre" style="shape=partialRectangle;html=1;whiteSpace=wrap;connectable=0;fillColor=none;top=0;left=0;bottom=0;right=0;overflow=hidden;strokeColor=none;align=left;fontStyle=4" parent="62" vertex="1">
                    <mxGeometry width="108" height="22" as="geometry"/>
                </mxCell>
                <mxCell id="64" value="texte" style="shape=partialRectangle;html=1;whiteSpace=wrap;connectable=0;fillColor=none;top=0;left=0;bottom=0;right=0;overflow=hidden;align=right;" parent="62" vertex="1">
                    <mxGeometry x="108" width="108" height="22" as="geometry"/>
                </mxCell>
                <mxCell id="65" value="" style="shape=partialRectangle;html=1;whiteSpace=wrap;collapsible=0;dropTarget=0;pointerEvents=0;fillColor=none;top=0;left=0;bottom=0;right=0;points=[[0,0.5],[1,0.5]];portConstraint=eastwest;" parent="61" vertex="1">
                    <mxGeometry y="22" width="216" height="22" as="geometry"/>
                </mxCell>
                <mxCell id="66" value="Contenu" style="shape=partialRectangle;html=1;whiteSpace=wrap;connectable=0;fillColor=none;top=0;left=0;bottom=0;right=0;overflow=hidden;align=left;" parent="65" vertex="1">
                    <mxGeometry width="108" height="22" as="geometry"/>
                </mxCell>
                <mxCell id="67" value="texte" style="shape=partialRectangle;html=1;whiteSpace=wrap;connectable=0;fillColor=none;top=0;left=0;bottom=0;right=0;overflow=hidden;align=right;" parent="65" vertex="1">
                    <mxGeometry x="108" width="108" height="22" as="geometry"/>
                </mxCell>
                <mxCell id="68" style="shape=partialRectangle;html=1;whiteSpace=wrap;collapsible=0;dropTarget=0;pointerEvents=0;fillColor=none;top=0;left=0;bottom=0;right=0;points=[[0,0.5],[1,0.5]];portConstraint=eastwest;" parent="61" vertex="1">
                    <mxGeometry y="44" width="216" height="22" as="geometry"/>
                </mxCell>
                <mxCell id="69" value="Date" style="shape=partialRectangle;html=1;whiteSpace=wrap;connectable=0;fillColor=none;top=0;left=0;bottom=0;right=0;overflow=hidden;align=left;" parent="68" vertex="1">
                    <mxGeometry width="108" height="22" as="geometry"/>
                </mxCell>
                <mxCell id="70" value="date" style="shape=partialRectangle;html=1;whiteSpace=wrap;connectable=0;fillColor=none;top=0;left=0;bottom=0;right=0;overflow=hidden;align=right;" parent="68" vertex="1">
                    <mxGeometry x="108" width="108" height="22" as="geometry"/>
                </mxCell>
                <mxCell id="71" value="Publier" style="swimlane;fontStyle=1;childLayout=stackLayout;horizontal=1;startSize=26;horizontalStack=0;resizeParent=1;resizeParentMax=0;resizeLast=0;collapsible=1;marginBottom=0;align=center;fontSize=14;rounded=1;swimlaneFillColor=#ffffff;" parent="1" vertex="1">
                    <mxGeometry x="715" y="-920" width="160" height="50" as="geometry"/>
                </mxCell>
                <mxCell id="72" value="" style="shape=table;html=1;whiteSpace=wrap;startSize=0;container=1;collapsible=0;childLayout=tableLayout;fillColor=none;strokeColor=none;" parent="71" vertex="1">
                    <mxGeometry y="26" width="160" height="24" as="geometry"/>
                </mxCell>
                <mxCell id="73" value="" style="shape=partialRectangle;html=1;whiteSpace=wrap;collapsible=0;dropTarget=0;pointerEvents=0;fillColor=none;top=0;left=0;bottom=0;right=0;points=[[0,0.5],[1,0.5]];portConstraint=eastwest;" parent="72" vertex="1">
                    <mxGeometry width="160" height="24" as="geometry"/>
                </mxCell>
                <mxCell id="74" value="" style="shape=partialRectangle;html=1;whiteSpace=wrap;connectable=0;fillColor=none;top=0;left=0;bottom=0;right=0;overflow=hidden;strokeColor=none;" parent="73" vertex="1">
                    <mxGeometry width="80" height="24" as="geometry"/>
                </mxCell>
                <mxCell id="75" value="" style="shape=partialRectangle;html=1;whiteSpace=wrap;connectable=0;fillColor=none;top=0;left=0;bottom=0;right=0;overflow=hidden;" parent="73" vertex="1">
                    <mxGeometry x="80" width="80" height="24" as="geometry"/>
                </mxCell>
                <mxCell id="76" value="" style="endArrow=none;html=1;" parent="1" source="71" target="41" edge="1">
                    <mxGeometry width="50" height="50" relative="1" as="geometry">
                        <mxPoint x="192" y="-520" as="sourcePoint"/>
                        <mxPoint x="192" y="-584" as="targetPoint"/>
                    </mxGeometry>
                </mxCell>
                <mxCell id="77" value="" style="endArrow=none;html=1;" parent="1" source="60" target="71" edge="1">
                    <mxGeometry width="50" height="50" relative="1" as="geometry">
                        <mxPoint x="740" y="-603.0476190476188" as="sourcePoint"/>
                        <mxPoint x="676" y="-602.2857142857142" as="targetPoint"/>
                    </mxGeometry>
                </mxCell>
                <mxCell id="78" value="Lans" style="swimlane;fontStyle=1;childLayout=stackLayout;horizontal=1;startSize=26;horizontalStack=0;resizeParent=1;resizeParentMax=0;resizeLast=0;collapsible=1;marginBottom=0;align=center;fontSize=14;rounded=0;swimlaneFillColor=#ffffff;" parent="1" vertex="1">
                    <mxGeometry x="58" y="-723" width="216" height="136" as="geometry"/>
                </mxCell>
                <mxCell id="79" value="" style="shape=table;html=1;whiteSpace=wrap;startSize=0;container=1;collapsible=0;childLayout=tableLayout;fillColor=none;strokeColor=none;" parent="78" vertex="1">
                    <mxGeometry y="26" width="216" height="110" as="geometry"/>
                </mxCell>
                <mxCell id="80" value="" style="shape=partialRectangle;html=1;whiteSpace=wrap;collapsible=0;dropTarget=0;pointerEvents=0;fillColor=none;top=0;left=0;bottom=0;right=0;points=[[0,0.5],[1,0.5]];portConstraint=eastwest;" parent="79" vertex="1">
                    <mxGeometry width="216" height="22" as="geometry"/>
                </mxCell>
                <mxCell id="81" value="Nom" style="shape=partialRectangle;html=1;whiteSpace=wrap;connectable=0;fillColor=none;top=0;left=0;bottom=0;right=0;overflow=hidden;strokeColor=none;align=left;fontStyle=4" parent="80" vertex="1">
                    <mxGeometry width="108" height="22" as="geometry"/>
                </mxCell>
                <mxCell id="82" value="texte" style="shape=partialRectangle;html=1;whiteSpace=wrap;connectable=0;fillColor=none;top=0;left=0;bottom=0;right=0;overflow=hidden;align=right;" parent="80" vertex="1">
                    <mxGeometry x="108" width="108" height="22" as="geometry"/>
                </mxCell>
                <mxCell id="83" value="" style="shape=partialRectangle;html=1;whiteSpace=wrap;collapsible=0;dropTarget=0;pointerEvents=0;fillColor=none;top=0;left=0;bottom=0;right=0;points=[[0,0.5],[1,0.5]];portConstraint=eastwest;" parent="79" vertex="1">
                    <mxGeometry y="22" width="216" height="22" as="geometry"/>
                </mxCell>
                <mxCell id="84" value="Description" style="shape=partialRectangle;html=1;whiteSpace=wrap;connectable=0;fillColor=none;top=0;left=0;bottom=0;right=0;overflow=hidden;align=left;" parent="83" vertex="1">
                    <mxGeometry width="108" height="22" as="geometry"/>
                </mxCell>
                <mxCell id="85" value="texte" style="shape=partialRectangle;html=1;whiteSpace=wrap;connectable=0;fillColor=none;top=0;left=0;bottom=0;right=0;overflow=hidden;align=right;" parent="83" vertex="1">
                    <mxGeometry x="108" width="108" height="22" as="geometry"/>
                </mxCell>
                <mxCell id="89" style="shape=partialRectangle;html=1;whiteSpace=wrap;collapsible=0;dropTarget=0;pointerEvents=0;fillColor=none;top=0;left=0;bottom=0;right=0;points=[[0,0.5],[1,0.5]];portConstraint=eastwest;" parent="79" vertex="1">
                    <mxGeometry y="44" width="216" height="22" as="geometry"/>
                </mxCell>
                <mxCell id="90" value="Places" style="shape=partialRectangle;html=1;whiteSpace=wrap;connectable=0;fillColor=none;top=0;left=0;bottom=0;right=0;overflow=hidden;align=left;" parent="89" vertex="1">
                    <mxGeometry width="108" height="22" as="geometry"/>
                </mxCell>
                <mxCell id="91" value="nombre" style="shape=partialRectangle;html=1;whiteSpace=wrap;connectable=0;fillColor=none;top=0;left=0;bottom=0;right=0;overflow=hidden;align=right;" parent="89" vertex="1">
                    <mxGeometry x="108" width="108" height="22" as="geometry"/>
                </mxCell>
                <mxCell id="86" style="shape=partialRectangle;html=1;whiteSpace=wrap;collapsible=0;dropTarget=0;pointerEvents=0;fillColor=none;top=0;left=0;bottom=0;right=0;points=[[0,0.5],[1,0.5]];portConstraint=eastwest;" parent="79" vertex="1">
                    <mxGeometry y="66" width="216" height="22" as="geometry"/>
                </mxCell>
                <mxCell id="87" value="Début" style="shape=partialRectangle;html=1;whiteSpace=wrap;connectable=0;fillColor=none;top=0;left=0;bottom=0;right=0;overflow=hidden;align=left;" parent="86" vertex="1">
                    <mxGeometry width="108" height="22" as="geometry"/>
                </mxCell>
                <mxCell id="88" value="date" style="shape=partialRectangle;html=1;whiteSpace=wrap;connectable=0;fillColor=none;top=0;left=0;bottom=0;right=0;overflow=hidden;align=right;" parent="86" vertex="1">
                    <mxGeometry x="108" width="108" height="22" as="geometry"/>
                </mxCell>
                <mxCell id="92" style="shape=partialRectangle;html=1;whiteSpace=wrap;collapsible=0;dropTarget=0;pointerEvents=0;fillColor=none;top=0;left=0;bottom=0;right=0;points=[[0,0.5],[1,0.5]];portConstraint=eastwest;" parent="79" vertex="1">
                    <mxGeometry y="88" width="216" height="22" as="geometry"/>
                </mxCell>
                <mxCell id="93" value="Fin" style="shape=partialRectangle;html=1;whiteSpace=wrap;connectable=0;fillColor=none;top=0;left=0;bottom=0;right=0;overflow=hidden;align=left;" parent="92" vertex="1">
                    <mxGeometry width="108" height="22" as="geometry"/>
                </mxCell>
                <mxCell id="94" value="date" style="shape=partialRectangle;html=1;whiteSpace=wrap;connectable=0;fillColor=none;top=0;left=0;bottom=0;right=0;overflow=hidden;align=right;" parent="92" vertex="1">
                    <mxGeometry x="108" width="108" height="22" as="geometry"/>
                </mxCell>
                <mxCell id="95" value="Organiser" style="swimlane;fontStyle=1;childLayout=stackLayout;horizontal=1;startSize=26;horizontalStack=0;resizeParent=1;resizeParentMax=0;resizeLast=0;collapsible=1;marginBottom=0;align=center;fontSize=14;rounded=1;swimlaneFillColor=#ffffff;" parent="1" vertex="1">
                    <mxGeometry x="210" y="-787" width="160" height="50" as="geometry"/>
                </mxCell>
                <mxCell id="96" value="" style="shape=table;html=1;whiteSpace=wrap;startSize=0;container=1;collapsible=0;childLayout=tableLayout;fillColor=none;strokeColor=none;" parent="95" vertex="1">
                    <mxGeometry y="26" width="160" height="24" as="geometry"/>
                </mxCell>
                <mxCell id="97" value="" style="shape=partialRectangle;html=1;whiteSpace=wrap;collapsible=0;dropTarget=0;pointerEvents=0;fillColor=none;top=0;left=0;bottom=0;right=0;points=[[0,0.5],[1,0.5]];portConstraint=eastwest;" parent="96" vertex="1">
                    <mxGeometry width="160" height="24" as="geometry"/>
                </mxCell>
                <mxCell id="98" value="" style="shape=partialRectangle;html=1;whiteSpace=wrap;connectable=0;fillColor=none;top=0;left=0;bottom=0;right=0;overflow=hidden;strokeColor=none;" parent="97" vertex="1">
                    <mxGeometry width="80" height="24" as="geometry"/>
                </mxCell>
                <mxCell id="99" value="" style="shape=partialRectangle;html=1;whiteSpace=wrap;connectable=0;fillColor=none;top=0;left=0;bottom=0;right=0;overflow=hidden;" parent="97" vertex="1">
                    <mxGeometry x="80" width="80" height="24" as="geometry"/>
                </mxCell>
                <mxCell id="100" value="Contenir" style="swimlane;fontStyle=1;childLayout=stackLayout;horizontal=1;startSize=26;horizontalStack=0;resizeParent=1;resizeParentMax=0;resizeLast=0;collapsible=1;marginBottom=0;align=center;fontSize=14;rounded=1;swimlaneFillColor=#ffffff;" parent="1" vertex="1">
                    <mxGeometry x="-180" y="-860" width="160" height="50" as="geometry"/>
                </mxCell>
                <mxCell id="101" value="" style="shape=table;html=1;whiteSpace=wrap;startSize=0;container=1;collapsible=0;childLayout=tableLayout;fillColor=none;strokeColor=none;" parent="100" vertex="1">
                    <mxGeometry y="26" width="160" height="24" as="geometry"/>
                </mxCell>
                <mxCell id="102" value="" style="shape=partialRectangle;html=1;whiteSpace=wrap;collapsible=0;dropTarget=0;pointerEvents=0;fillColor=none;top=0;left=0;bottom=0;right=0;points=[[0,0.5],[1,0.5]];portConstraint=eastwest;" parent="101" vertex="1">
                    <mxGeometry width="160" height="24" as="geometry"/>
                </mxCell>
                <mxCell id="103" value="" style="shape=partialRectangle;html=1;whiteSpace=wrap;connectable=0;fillColor=none;top=0;left=0;bottom=0;right=0;overflow=hidden;strokeColor=none;" parent="102" vertex="1">
                    <mxGeometry width="80" height="24" as="geometry"/>
                </mxCell>
                <mxCell id="104" value="" style="shape=partialRectangle;html=1;whiteSpace=wrap;connectable=0;fillColor=none;top=0;left=0;bottom=0;right=0;overflow=hidden;" parent="102" vertex="1">
                    <mxGeometry x="80" width="80" height="24" as="geometry"/>
                </mxCell>
                <mxCell id="105" value="" style="endArrow=none;html=1;" parent="1" source="41" target="95" edge="1">
                    <mxGeometry width="50" height="50" relative="1" as="geometry">
                        <mxPoint x="364" y="-654.0476190476188" as="sourcePoint"/>
                        <mxPoint x="300" y="-653.2857142857142" as="targetPoint"/>
                    </mxGeometry>
                </mxCell>
                <mxCell id="106" value="" style="endArrow=none;html=1;" parent="1" source="95" target="78" edge="1">
                    <mxGeometry width="50" height="50" relative="1" as="geometry">
                        <mxPoint x="192" y="-720" as="sourcePoint"/>
                        <mxPoint x="192" y="-790" as="targetPoint"/>
                    </mxGeometry>
                </mxCell>
                <mxCell id="107" value="Evénements" style="swimlane;fontStyle=1;childLayout=stackLayout;horizontal=1;startSize=26;horizontalStack=0;resizeParent=1;resizeParentMax=0;resizeLast=0;collapsible=1;marginBottom=0;align=center;fontSize=14;rounded=0;swimlaneFillColor=#ffffff;" parent="1" vertex="1">
                    <mxGeometry x="-446" y="-1048" width="216" height="136" as="geometry"/>
                </mxCell>
                <mxCell id="108" value="" style="shape=table;html=1;whiteSpace=wrap;startSize=0;container=1;collapsible=0;childLayout=tableLayout;fillColor=none;strokeColor=none;" parent="107" vertex="1">
                    <mxGeometry y="26" width="216" height="110" as="geometry"/>
                </mxCell>
                <mxCell id="109" value="" style="shape=partialRectangle;html=1;whiteSpace=wrap;collapsible=0;dropTarget=0;pointerEvents=0;fillColor=none;top=0;left=0;bottom=0;right=0;points=[[0,0.5],[1,0.5]];portConstraint=eastwest;" parent="108" vertex="1">
                    <mxGeometry width="216" height="22" as="geometry"/>
                </mxCell>
                <mxCell id="110" value="Nom" style="shape=partialRectangle;html=1;whiteSpace=wrap;connectable=0;fillColor=none;top=0;left=0;bottom=0;right=0;overflow=hidden;strokeColor=none;align=left;fontStyle=0" parent="109" vertex="1">
                    <mxGeometry width="108" height="22" as="geometry"/>
                </mxCell>
                <mxCell id="111" value="texte" style="shape=partialRectangle;html=1;whiteSpace=wrap;connectable=0;fillColor=none;top=0;left=0;bottom=0;right=0;overflow=hidden;align=right;" parent="109" vertex="1">
                    <mxGeometry x="108" width="108" height="22" as="geometry"/>
                </mxCell>
                <mxCell id="112" value="" style="shape=partialRectangle;html=1;whiteSpace=wrap;collapsible=0;dropTarget=0;pointerEvents=0;fillColor=none;top=0;left=0;bottom=0;right=0;points=[[0,0.5],[1,0.5]];portConstraint=eastwest;" parent="108" vertex="1">
                    <mxGeometry y="22" width="216" height="22" as="geometry"/>
                </mxCell>
                <mxCell id="113" value="Description" style="shape=partialRectangle;html=1;whiteSpace=wrap;connectable=0;fillColor=none;top=0;left=0;bottom=0;right=0;overflow=hidden;align=left;" parent="112" vertex="1">
                    <mxGeometry width="108" height="22" as="geometry"/>
                </mxCell>
                <mxCell id="114" value="texte" style="shape=partialRectangle;html=1;whiteSpace=wrap;connectable=0;fillColor=none;top=0;left=0;bottom=0;right=0;overflow=hidden;align=right;" parent="112" vertex="1">
                    <mxGeometry x="108" width="108" height="22" as="geometry"/>
                </mxCell>
                <mxCell id="115" style="shape=partialRectangle;html=1;whiteSpace=wrap;collapsible=0;dropTarget=0;pointerEvents=0;fillColor=none;top=0;left=0;bottom=0;right=0;points=[[0,0.5],[1,0.5]];portConstraint=eastwest;" parent="108" vertex="1">
                    <mxGeometry y="44" width="216" height="22" as="geometry"/>
                </mxCell>
                <mxCell id="116" value="Type" style="shape=partialRectangle;html=1;whiteSpace=wrap;connectable=0;fillColor=none;top=0;left=0;bottom=0;right=0;overflow=hidden;align=left;" parent="115" vertex="1">
                    <mxGeometry width="108" height="22" as="geometry"/>
                </mxCell>
                <mxCell id="117" value="texte" style="shape=partialRectangle;html=1;whiteSpace=wrap;connectable=0;fillColor=none;top=0;left=0;bottom=0;right=0;overflow=hidden;align=right;" parent="115" vertex="1">
                    <mxGeometry x="108" width="108" height="22" as="geometry"/>
                </mxCell>
                <mxCell id="118" style="shape=partialRectangle;html=1;whiteSpace=wrap;collapsible=0;dropTarget=0;pointerEvents=0;fillColor=none;top=0;left=0;bottom=0;right=0;points=[[0,0.5],[1,0.5]];portConstraint=eastwest;" parent="108" vertex="1">
                    <mxGeometry y="66" width="216" height="22" as="geometry"/>
                </mxCell>
                <mxCell id="119" value="Début" style="shape=partialRectangle;html=1;whiteSpace=wrap;connectable=0;fillColor=none;top=0;left=0;bottom=0;right=0;overflow=hidden;align=left;" parent="118" vertex="1">
                    <mxGeometry width="108" height="22" as="geometry"/>
                </mxCell>
                <mxCell id="120" value="date" style="shape=partialRectangle;html=1;whiteSpace=wrap;connectable=0;fillColor=none;top=0;left=0;bottom=0;right=0;overflow=hidden;align=right;" parent="118" vertex="1">
                    <mxGeometry x="108" width="108" height="22" as="geometry"/>
                </mxCell>
                <mxCell id="121" style="shape=partialRectangle;html=1;whiteSpace=wrap;collapsible=0;dropTarget=0;pointerEvents=0;fillColor=none;top=0;left=0;bottom=0;right=0;points=[[0,0.5],[1,0.5]];portConstraint=eastwest;" parent="108" vertex="1">
                    <mxGeometry y="88" width="216" height="22" as="geometry"/>
                </mxCell>
                <mxCell id="122" value="Fin" style="shape=partialRectangle;html=1;whiteSpace=wrap;connectable=0;fillColor=none;top=0;left=0;bottom=0;right=0;overflow=hidden;align=left;" parent="121" vertex="1">
                    <mxGeometry width="108" height="22" as="geometry"/>
                </mxCell>
                <mxCell id="123" value="date" style="shape=partialRectangle;html=1;whiteSpace=wrap;connectable=0;fillColor=none;top=0;left=0;bottom=0;right=0;overflow=hidden;align=right;" parent="121" vertex="1">
                    <mxGeometry x="108" width="108" height="22" as="geometry"/>
                </mxCell>
                <mxCell id="124" value="" style="endArrow=none;html=1;" parent="1" source="100" target="107" edge="1">
                    <mxGeometry width="50" height="50" relative="1" as="geometry">
                        <mxPoint x="192" y="-840" as="sourcePoint"/>
                        <mxPoint x="192" y="-902" as="targetPoint"/>
                    </mxGeometry>
                </mxCell>
                <mxCell id="125" value="" style="endArrow=none;html=1;" parent="1" source="78" target="100" edge="1">
                    <mxGeometry width="50" height="50" relative="1" as="geometry">
                        <mxPoint x="-156" y="-973.4126984126983" as="sourcePoint"/>
                        <mxPoint x="-220" y="-972.1428571428573" as="targetPoint"/>
                    </mxGeometry>
                </mxCell>
                <mxCell id="126" value="Equipes" style="swimlane;fontStyle=1;childLayout=stackLayout;horizontal=1;startSize=26;horizontalStack=0;resizeParent=1;resizeParentMax=0;resizeLast=0;collapsible=1;marginBottom=0;align=center;fontSize=14;rounded=0;swimlaneFillColor=#ffffff;" parent="1" vertex="1">
                    <mxGeometry x="-446" y="-689" width="216" height="70" as="geometry"/>
                </mxCell>
                <mxCell id="127" value="" style="shape=table;html=1;whiteSpace=wrap;startSize=0;container=1;collapsible=0;childLayout=tableLayout;fillColor=none;strokeColor=none;" parent="126" vertex="1">
                    <mxGeometry y="26" width="216" height="44" as="geometry"/>
                </mxCell>
                <mxCell id="128" value="" style="shape=partialRectangle;html=1;whiteSpace=wrap;collapsible=0;dropTarget=0;pointerEvents=0;fillColor=none;top=0;left=0;bottom=0;right=0;points=[[0,0.5],[1,0.5]];portConstraint=eastwest;" parent="127" vertex="1">
                    <mxGeometry width="216" height="22" as="geometry"/>
                </mxCell>
                <mxCell id="129" value="Nom" style="shape=partialRectangle;html=1;whiteSpace=wrap;connectable=0;fillColor=none;top=0;left=0;bottom=0;right=0;overflow=hidden;strokeColor=none;align=left;fontStyle=4" parent="128" vertex="1">
                    <mxGeometry width="108" height="22" as="geometry"/>
                </mxCell>
                <mxCell id="130" value="texte" style="shape=partialRectangle;html=1;whiteSpace=wrap;connectable=0;fillColor=none;top=0;left=0;bottom=0;right=0;overflow=hidden;align=right;" parent="128" vertex="1">
                    <mxGeometry x="108" width="108" height="22" as="geometry"/>
                </mxCell>
                <mxCell id="131" value="" style="shape=partialRectangle;html=1;whiteSpace=wrap;collapsible=0;dropTarget=0;pointerEvents=0;fillColor=none;top=0;left=0;bottom=0;right=0;points=[[0,0.5],[1,0.5]];portConstraint=eastwest;" parent="127" vertex="1">
                    <mxGeometry y="22" width="216" height="22" as="geometry"/>
                </mxCell>
                <mxCell id="132" value="Abréviation" style="shape=partialRectangle;html=1;whiteSpace=wrap;connectable=0;fillColor=none;top=0;left=0;bottom=0;right=0;overflow=hidden;align=left;fontStyle=4" parent="131" vertex="1">
                    <mxGeometry width="108" height="22" as="geometry"/>
                </mxCell>
                <mxCell id="133" value="texte" style="shape=partialRectangle;html=1;whiteSpace=wrap;connectable=0;fillColor=none;top=0;left=0;bottom=0;right=0;overflow=hidden;align=right;" parent="131" vertex="1">
                    <mxGeometry x="108" width="108" height="22" as="geometry"/>
                </mxCell>
                <mxCell id="134" value="Rejoindre" style="swimlane;fontStyle=1;childLayout=stackLayout;horizontal=1;startSize=26;horizontalStack=0;resizeParent=1;resizeParentMax=0;resizeLast=0;collapsible=1;marginBottom=0;align=center;fontSize=14;rounded=1;swimlaneFillColor=#ffffff;" parent="1" vertex="1">
                    <mxGeometry x="450" y="-560" width="160" height="50" as="geometry"/>
                </mxCell>
                <mxCell id="135" value="" style="shape=table;html=1;whiteSpace=wrap;startSize=0;container=1;collapsible=0;childLayout=tableLayout;fillColor=none;strokeColor=none;" parent="134" vertex="1">
                    <mxGeometry y="26" width="160" height="24" as="geometry"/>
                </mxCell>
                <mxCell id="136" value="" style="shape=partialRectangle;html=1;whiteSpace=wrap;collapsible=0;dropTarget=0;pointerEvents=0;fillColor=none;top=0;left=0;bottom=0;right=0;points=[[0,0.5],[1,0.5]];portConstraint=eastwest;" parent="135" vertex="1">
                    <mxGeometry width="160" height="24" as="geometry"/>
                </mxCell>
                <mxCell id="137" value="" style="shape=partialRectangle;html=1;whiteSpace=wrap;connectable=0;fillColor=none;top=0;left=0;bottom=0;right=0;overflow=hidden;strokeColor=none;" parent="136" vertex="1">
                    <mxGeometry width="80" height="24" as="geometry"/>
                </mxCell>
                <mxCell id="138" value="" style="shape=partialRectangle;html=1;whiteSpace=wrap;connectable=0;fillColor=none;top=0;left=0;bottom=0;right=0;overflow=hidden;" parent="136" vertex="1">
                    <mxGeometry x="80" width="80" height="24" as="geometry"/>
                </mxCell>
                <mxCell id="139" value="" style="endArrow=none;html=1;" parent="1" source="41" target="134" edge="1">
                    <mxGeometry width="50" height="50" relative="1" as="geometry">
                        <mxPoint x="192" y="-720" as="sourcePoint"/>
                        <mxPoint x="192" y="-790" as="targetPoint"/>
                    </mxGeometry>
                </mxCell>
                <mxCell id="140" value="" style="endArrow=none;html=1;" parent="1" source="134" target="126" edge="1">
                    <mxGeometry width="50" height="50" relative="1" as="geometry">
                        <mxPoint x="202" y="-710" as="sourcePoint"/>
                        <mxPoint x="202" y="-780" as="targetPoint"/>
                        <Array as="points">
                            <mxPoint x="-180" y="-535"/>
                        </Array>
                    </mxGeometry>
                </mxCell>
                <mxCell id="141" value="Locations" style="swimlane;fontStyle=1;childLayout=stackLayout;horizontal=1;startSize=26;horizontalStack=0;resizeParent=1;resizeParentMax=0;resizeLast=0;collapsible=1;marginBottom=0;align=center;fontSize=14;rounded=0;swimlaneFillColor=#ffffff;" parent="1" vertex="1">
                    <mxGeometry x="58" y="-1015" width="216" height="70" as="geometry"/>
                </mxCell>
                <mxCell id="142" value="" style="shape=table;html=1;whiteSpace=wrap;startSize=0;container=1;collapsible=0;childLayout=tableLayout;fillColor=none;strokeColor=none;" parent="141" vertex="1">
                    <mxGeometry y="26" width="216" height="44" as="geometry"/>
                </mxCell>
                <mxCell id="143" value="" style="shape=partialRectangle;html=1;whiteSpace=wrap;collapsible=0;dropTarget=0;pointerEvents=0;fillColor=none;top=0;left=0;bottom=0;right=0;points=[[0,0.5],[1,0.5]];portConstraint=eastwest;" parent="142" vertex="1">
                    <mxGeometry width="216" height="22" as="geometry"/>
                </mxCell>
                <mxCell id="144" value="Nom" style="shape=partialRectangle;html=1;whiteSpace=wrap;connectable=0;fillColor=none;top=0;left=0;bottom=0;right=0;overflow=hidden;strokeColor=none;align=left;fontStyle=4" parent="143" vertex="1">
                    <mxGeometry width="108" height="22" as="geometry"/>
                </mxCell>
                <mxCell id="145" value="texte" style="shape=partialRectangle;html=1;whiteSpace=wrap;connectable=0;fillColor=none;top=0;left=0;bottom=0;right=0;overflow=hidden;align=right;" parent="143" vertex="1">
                    <mxGeometry x="108" width="108" height="22" as="geometry"/>
                </mxCell>
                <mxCell id="146" value="" style="shape=partialRectangle;html=1;whiteSpace=wrap;collapsible=0;dropTarget=0;pointerEvents=0;fillColor=none;top=0;left=0;bottom=0;right=0;points=[[0,0.5],[1,0.5]];portConstraint=eastwest;" parent="142" vertex="1">
                    <mxGeometry y="22" width="216" height="22" as="geometry"/>
                </mxCell>
                <mxCell id="147" value="Adresse" style="shape=partialRectangle;html=1;whiteSpace=wrap;connectable=0;fillColor=none;top=0;left=0;bottom=0;right=0;overflow=hidden;align=left;fontStyle=4" parent="146" vertex="1">
                    <mxGeometry width="108" height="22" as="geometry"/>
                </mxCell>
                <mxCell id="148" value="texte" style="shape=partialRectangle;html=1;whiteSpace=wrap;connectable=0;fillColor=none;top=0;left=0;bottom=0;right=0;overflow=hidden;align=right;" parent="146" vertex="1">
                    <mxGeometry x="108" width="108" height="22" as="geometry"/>
                </mxCell>
                <mxCell id="150" value="Se situer" style="swimlane;fontStyle=1;childLayout=stackLayout;horizontal=1;startSize=26;horizontalStack=0;resizeParent=1;resizeParentMax=0;resizeLast=0;collapsible=1;marginBottom=0;align=center;fontSize=14;rounded=1;swimlaneFillColor=#ffffff;" parent="1" vertex="1">
                    <mxGeometry x="86" y="-860" width="160" height="50" as="geometry"/>
                </mxCell>
                <mxCell id="151" value="" style="shape=table;html=1;whiteSpace=wrap;startSize=0;container=1;collapsible=0;childLayout=tableLayout;fillColor=none;strokeColor=none;" parent="150" vertex="1">
                    <mxGeometry y="26" width="160" height="24" as="geometry"/>
                </mxCell>
                <mxCell id="152" value="" style="shape=partialRectangle;html=1;whiteSpace=wrap;collapsible=0;dropTarget=0;pointerEvents=0;fillColor=none;top=0;left=0;bottom=0;right=0;points=[[0,0.5],[1,0.5]];portConstraint=eastwest;" parent="151" vertex="1">
                    <mxGeometry width="160" height="24" as="geometry"/>
                </mxCell>
                <mxCell id="153" value="" style="shape=partialRectangle;html=1;whiteSpace=wrap;connectable=0;fillColor=none;top=0;left=0;bottom=0;right=0;overflow=hidden;strokeColor=none;" parent="152" vertex="1">
                    <mxGeometry width="80" height="24" as="geometry"/>
                </mxCell>
                <mxCell id="154" value="" style="shape=partialRectangle;html=1;whiteSpace=wrap;connectable=0;fillColor=none;top=0;left=0;bottom=0;right=0;overflow=hidden;" parent="152" vertex="1">
                    <mxGeometry x="80" width="80" height="24" as="geometry"/>
                </mxCell>
                <mxCell id="155" value="Se trouver" style="swimlane;fontStyle=1;childLayout=stackLayout;horizontal=1;startSize=26;horizontalStack=0;resizeParent=1;resizeParentMax=0;resizeLast=0;collapsible=1;marginBottom=0;align=center;fontSize=14;rounded=1;swimlaneFillColor=#ffffff;" parent="1" vertex="1">
                    <mxGeometry x="-170" y="-1005" width="160" height="50" as="geometry"/>
                </mxCell>
                <mxCell id="156" value="" style="shape=table;html=1;whiteSpace=wrap;startSize=0;container=1;collapsible=0;childLayout=tableLayout;fillColor=none;strokeColor=none;" parent="155" vertex="1">
                    <mxGeometry y="26" width="160" height="24" as="geometry"/>
                </mxCell>
                <mxCell id="157" value="" style="shape=partialRectangle;html=1;whiteSpace=wrap;collapsible=0;dropTarget=0;pointerEvents=0;fillColor=none;top=0;left=0;bottom=0;right=0;points=[[0,0.5],[1,0.5]];portConstraint=eastwest;" parent="156" vertex="1">
                    <mxGeometry width="160" height="24" as="geometry"/>
                </mxCell>
                <mxCell id="158" value="" style="shape=partialRectangle;html=1;whiteSpace=wrap;connectable=0;fillColor=none;top=0;left=0;bottom=0;right=0;overflow=hidden;strokeColor=none;" parent="157" vertex="1">
                    <mxGeometry width="80" height="24" as="geometry"/>
                </mxCell>
                <mxCell id="159" value="" style="shape=partialRectangle;html=1;whiteSpace=wrap;connectable=0;fillColor=none;top=0;left=0;bottom=0;right=0;overflow=hidden;" parent="157" vertex="1">
                    <mxGeometry x="80" width="80" height="24" as="geometry"/>
                </mxCell>
                <mxCell id="160" value="" style="endArrow=none;html=1;" parent="1" source="155" target="107" edge="1">
                    <mxGeometry width="50" height="50" relative="1" as="geometry">
                        <mxPoint x="-156" y="-973.4126984126983" as="sourcePoint"/>
                        <mxPoint x="-220" y="-972.1428571428573" as="targetPoint"/>
                    </mxGeometry>
                </mxCell>
                <mxCell id="161" value="" style="endArrow=none;html=1;" parent="1" source="150" target="78" edge="1">
                    <mxGeometry width="50" height="50" relative="1" as="geometry">
                        <mxPoint x="-335.14893617021244" y="-1180" as="sourcePoint"/>
                        <mxPoint x="-330.31489361702097" y="-1038" as="targetPoint"/>
                    </mxGeometry>
                </mxCell>
                <mxCell id="162" value="" style="endArrow=none;html=1;" parent="1" source="141" target="150" edge="1">
                    <mxGeometry width="50" height="50" relative="1" as="geometry">
                        <mxPoint x="193.78723404255288" y="-1180" as="sourcePoint"/>
                        <mxPoint x="192.57872340425547" y="-1038" as="targetPoint"/>
                    </mxGeometry>
                </mxCell>
                <mxCell id="163" value="" style="endArrow=none;html=1;" parent="1" source="141" target="155" edge="1">
                    <mxGeometry width="50" height="50" relative="1" as="geometry">
                        <mxPoint x="32" y="-1205" as="sourcePoint"/>
                        <mxPoint x="114" y="-1205" as="targetPoint"/>
                    </mxGeometry>
                </mxCell>
                <mxCell id="164" value="Organiser" style="swimlane;fontStyle=1;childLayout=stackLayout;horizontal=1;startSize=26;horizontalStack=0;resizeParent=1;resizeParentMax=0;resizeLast=0;collapsible=1;marginBottom=0;align=center;fontSize=14;rounded=1;swimlaneFillColor=#ffffff;" parent="1" vertex="1">
                    <mxGeometry x="450" y="-1110" width="160" height="50" as="geometry"/>
                </mxCell>
                <mxCell id="165" value="" style="shape=table;html=1;whiteSpace=wrap;startSize=0;container=1;collapsible=0;childLayout=tableLayout;fillColor=none;strokeColor=none;" parent="164" vertex="1">
                    <mxGeometry y="26" width="160" height="24" as="geometry"/>
                </mxCell>
                <mxCell id="166" value="" style="shape=partialRectangle;html=1;whiteSpace=wrap;collapsible=0;dropTarget=0;pointerEvents=0;fillColor=none;top=0;left=0;bottom=0;right=0;points=[[0,0.5],[1,0.5]];portConstraint=eastwest;" parent="165" vertex="1">
                    <mxGeometry width="160" height="24" as="geometry"/>
                </mxCell>
                <mxCell id="167" value="" style="shape=partialRectangle;html=1;whiteSpace=wrap;connectable=0;fillColor=none;top=0;left=0;bottom=0;right=0;overflow=hidden;strokeColor=none;" parent="166" vertex="1">
                    <mxGeometry width="80" height="24" as="geometry"/>
                </mxCell>
                <mxCell id="168" value="" style="shape=partialRectangle;html=1;whiteSpace=wrap;connectable=0;fillColor=none;top=0;left=0;bottom=0;right=0;overflow=hidden;" parent="166" vertex="1">
                    <mxGeometry x="80" width="80" height="24" as="geometry"/>
                </mxCell>
                <mxCell id="169" value="" style="endArrow=none;html=1;" parent="1" source="41" target="164" edge="1">
                    <mxGeometry width="50" height="50" relative="1" as="geometry">
                        <mxPoint x="192" y="-720" as="sourcePoint"/>
                        <mxPoint x="192" y="-790" as="targetPoint"/>
                    </mxGeometry>
                </mxCell>
                <mxCell id="170" value="" style="endArrow=none;html=1;" parent="1" source="164" target="107" edge="1">
                    <mxGeometry width="50" height="50" relative="1" as="geometry">
                        <mxPoint x="84" y="-717.686567164179" as="sourcePoint"/>
                        <mxPoint x="-34.89570552147234" y="-790" as="targetPoint"/>
                        <Array as="points">
                            <mxPoint x="-338" y="-1085"/>
                        </Array>
                    </mxGeometry>
                </mxCell>
                <mxCell id="171" value="Participer" style="swimlane;fontStyle=1;childLayout=stackLayout;horizontal=1;startSize=26;horizontalStack=0;resizeParent=1;resizeParentMax=0;resizeLast=0;collapsible=1;marginBottom=0;align=center;fontSize=14;rounded=1;swimlaneFillColor=#ffffff;" parent="1" vertex="1">
                    <mxGeometry x="-418" y="-810" width="160" height="50" as="geometry">
                        <mxRectangle x="-418" y="-810" width="100" height="26" as="alternateBounds"/>
                    </mxGeometry>
                </mxCell>
                <mxCell id="172" value="" style="shape=table;html=1;whiteSpace=wrap;startSize=0;container=1;collapsible=0;childLayout=tableLayout;fillColor=none;strokeColor=none;" parent="171" vertex="1">
                    <mxGeometry y="26" width="160" height="24" as="geometry"/>
                </mxCell>
                <mxCell id="173" value="" style="shape=partialRectangle;html=1;whiteSpace=wrap;collapsible=0;dropTarget=0;pointerEvents=0;fillColor=none;top=0;left=0;bottom=0;right=0;points=[[0,0.5],[1,0.5]];portConstraint=eastwest;" parent="172" vertex="1">
                    <mxGeometry width="160" height="24" as="geometry"/>
                </mxCell>
                <mxCell id="174" value="" style="shape=partialRectangle;html=1;whiteSpace=wrap;connectable=0;fillColor=none;top=0;left=0;bottom=0;right=0;overflow=hidden;strokeColor=none;" parent="173" vertex="1">
                    <mxGeometry width="80" height="24" as="geometry"/>
                </mxCell>
                <mxCell id="175" value="" style="shape=partialRectangle;html=1;whiteSpace=wrap;connectable=0;fillColor=none;top=0;left=0;bottom=0;right=0;overflow=hidden;" parent="173" vertex="1">
                    <mxGeometry x="80" width="80" height="24" as="geometry"/>
                </mxCell>
                <mxCell id="176" value="" style="endArrow=none;html=1;" parent="1" source="126" target="171" edge="1">
                    <mxGeometry width="50" height="50" relative="1" as="geometry">
                        <mxPoint x="-136" y="-642.5882352941176" as="sourcePoint"/>
                        <mxPoint x="-220" y="-643.205882352941" as="targetPoint"/>
                    </mxGeometry>
                </mxCell>
                <mxCell id="177" value="" style="endArrow=none;html=1;" parent="1" source="171" target="107" edge="1">
                    <mxGeometry width="50" height="50" relative="1" as="geometry">
                        <mxPoint x="-328" y="-679" as="sourcePoint"/>
                        <mxPoint x="-328" y="-750" as="targetPoint"/>
                    </mxGeometry>
                </mxCell>
                <mxCell id="178" value="Tournois" style="swimlane;fontStyle=1;childLayout=stackLayout;horizontal=1;startSize=26;horizontalStack=0;resizeParent=1;resizeParentMax=0;resizeLast=0;collapsible=1;marginBottom=0;align=center;fontSize=14;rounded=0;swimlaneFillColor=#ffffff;" parent="1" vertex="1">
                    <mxGeometry x="-760" y="-860" width="216" height="70" as="geometry"/>
                </mxCell>
                <mxCell id="179" value="" style="shape=table;html=1;whiteSpace=wrap;startSize=0;container=1;collapsible=0;childLayout=tableLayout;fillColor=none;strokeColor=none;" parent="178" vertex="1">
                    <mxGeometry y="26" width="216" height="44" as="geometry"/>
                </mxCell>
                <mxCell id="180" value="" style="shape=partialRectangle;html=1;whiteSpace=wrap;collapsible=0;dropTarget=0;pointerEvents=0;fillColor=none;top=0;left=0;bottom=0;right=0;points=[[0,0.5],[1,0.5]];portConstraint=eastwest;" parent="179" vertex="1">
                    <mxGeometry width="216" height="22" as="geometry"/>
                </mxCell>
                <mxCell id="181" value="Jeu" style="shape=partialRectangle;html=1;whiteSpace=wrap;connectable=0;fillColor=none;top=0;left=0;bottom=0;right=0;overflow=hidden;strokeColor=none;align=left;fontStyle=4" parent="180" vertex="1">
                    <mxGeometry width="108" height="22" as="geometry"/>
                </mxCell>
                <mxCell id="182" value="texte" style="shape=partialRectangle;html=1;whiteSpace=wrap;connectable=0;fillColor=none;top=0;left=0;bottom=0;right=0;overflow=hidden;align=right;" parent="180" vertex="1">
                    <mxGeometry x="108" width="108" height="22" as="geometry"/>
                </mxCell>
                <mxCell id="183" value="" style="shape=partialRectangle;html=1;whiteSpace=wrap;collapsible=0;dropTarget=0;pointerEvents=0;fillColor=none;top=0;left=0;bottom=0;right=0;points=[[0,0.5],[1,0.5]];portConstraint=eastwest;" parent="179" vertex="1">
                    <mxGeometry y="22" width="216" height="22" as="geometry"/>
                </mxCell>
                <mxCell id="184" value="Equipes" style="shape=partialRectangle;html=1;whiteSpace=wrap;connectable=0;fillColor=none;top=0;left=0;bottom=0;right=0;overflow=hidden;align=left;" parent="183" vertex="1">
                    <mxGeometry width="108" height="22" as="geometry"/>
                </mxCell>
                <mxCell id="185" value="nombre" style="shape=partialRectangle;html=1;whiteSpace=wrap;connectable=0;fillColor=none;top=0;left=0;bottom=0;right=0;overflow=hidden;align=right;" parent="183" vertex="1">
                    <mxGeometry x="108" width="108" height="22" as="geometry"/>
                </mxCell>
                <mxCell id="186" value="Matches" style="swimlane;fontStyle=1;childLayout=stackLayout;horizontal=1;startSize=26;horizontalStack=0;resizeParent=1;resizeParentMax=0;resizeLast=0;collapsible=1;marginBottom=0;align=center;fontSize=14;rounded=0;swimlaneFillColor=#ffffff;" parent="1" vertex="1">
                    <mxGeometry x="-760" y="-554" width="216" height="70" as="geometry"/>
                </mxCell>
                <mxCell id="187" value="" style="shape=table;html=1;whiteSpace=wrap;startSize=0;container=1;collapsible=0;childLayout=tableLayout;fillColor=none;strokeColor=none;" parent="186" vertex="1">
                    <mxGeometry y="26" width="216" height="44" as="geometry"/>
                </mxCell>
                <mxCell id="188" value="" style="shape=partialRectangle;html=1;whiteSpace=wrap;collapsible=0;dropTarget=0;pointerEvents=0;fillColor=none;top=0;left=0;bottom=0;right=0;points=[[0,0.5],[1,0.5]];portConstraint=eastwest;" parent="187" vertex="1">
                    <mxGeometry width="216" height="22" as="geometry"/>
                </mxCell>
                <mxCell id="189" value="Début" style="shape=partialRectangle;html=1;whiteSpace=wrap;connectable=0;fillColor=none;top=0;left=0;bottom=0;right=0;overflow=hidden;strokeColor=none;align=left;fontStyle=0" parent="188" vertex="1">
                    <mxGeometry width="108" height="22" as="geometry"/>
                </mxCell>
                <mxCell id="190" value="date/temps" style="shape=partialRectangle;html=1;whiteSpace=wrap;connectable=0;fillColor=none;top=0;left=0;bottom=0;right=0;overflow=hidden;align=right;" parent="188" vertex="1">
                    <mxGeometry x="108" width="108" height="22" as="geometry"/>
                </mxCell>
                <mxCell id="191" value="" style="shape=partialRectangle;html=1;whiteSpace=wrap;collapsible=0;dropTarget=0;pointerEvents=0;fillColor=none;top=0;left=0;bottom=0;right=0;points=[[0,0.5],[1,0.5]];portConstraint=eastwest;" parent="187" vertex="1">
                    <mxGeometry y="22" width="216" height="22" as="geometry"/>
                </mxCell>
                <mxCell id="192" value="Fin" style="shape=partialRectangle;html=1;whiteSpace=wrap;connectable=0;fillColor=none;top=0;left=0;bottom=0;right=0;overflow=hidden;align=left;" parent="191" vertex="1">
                    <mxGeometry width="108" height="22" as="geometry"/>
                </mxCell>
                <mxCell id="193" value="date/temps" style="shape=partialRectangle;html=1;whiteSpace=wrap;connectable=0;fillColor=none;top=0;left=0;bottom=0;right=0;overflow=hidden;align=right;" parent="191" vertex="1">
                    <mxGeometry x="108" width="108" height="22" as="geometry"/>
                </mxCell>
                <mxCell id="194" value="Disputer" style="swimlane;fontStyle=1;childLayout=stackLayout;horizontal=1;startSize=26;horizontalStack=0;resizeParent=1;resizeParentMax=0;resizeLast=0;collapsible=1;marginBottom=0;align=center;fontSize=14;rounded=1;swimlaneFillColor=#ffffff;" parent="1" vertex="1">
                    <mxGeometry x="-418" y="-554" width="160" height="74" as="geometry"/>
                </mxCell>
                <mxCell id="195" value="" style="shape=table;html=1;whiteSpace=wrap;startSize=0;container=1;collapsible=0;childLayout=tableLayout;fillColor=none;strokeColor=none;" parent="194" vertex="1">
                    <mxGeometry y="26" width="160" height="48" as="geometry"/>
                </mxCell>
                <mxCell id="196" value="" style="shape=partialRectangle;html=1;whiteSpace=wrap;collapsible=0;dropTarget=0;pointerEvents=0;fillColor=none;top=0;left=0;bottom=0;right=0;points=[[0,0.5],[1,0.5]];portConstraint=eastwest;" parent="195" vertex="1">
                    <mxGeometry width="160" height="24" as="geometry"/>
                </mxCell>
                <mxCell id="197" value="Points" style="shape=partialRectangle;html=1;whiteSpace=wrap;connectable=0;fillColor=none;top=0;left=0;bottom=0;right=0;overflow=hidden;strokeColor=none;" parent="196" vertex="1">
                    <mxGeometry width="80" height="24" as="geometry"/>
                </mxCell>
                <mxCell id="198" value="nombre" style="shape=partialRectangle;html=1;whiteSpace=wrap;connectable=0;fillColor=none;top=0;left=0;bottom=0;right=0;overflow=hidden;" parent="196" vertex="1">
                    <mxGeometry x="80" width="80" height="24" as="geometry"/>
                </mxCell>
                <mxCell id="199" style="shape=partialRectangle;html=1;whiteSpace=wrap;collapsible=0;dropTarget=0;pointerEvents=0;fillColor=none;top=0;left=0;bottom=0;right=0;points=[[0,0.5],[1,0.5]];portConstraint=eastwest;" parent="195" vertex="1">
                    <mxGeometry y="24" width="160" height="24" as="geometry"/>
                </mxCell>
                <mxCell id="200" value="Victoire" style="shape=partialRectangle;html=1;whiteSpace=wrap;connectable=0;fillColor=none;top=0;left=0;bottom=0;right=0;overflow=hidden;strokeColor=none;" parent="199" vertex="1">
                    <mxGeometry width="80" height="24" as="geometry"/>
                </mxCell>
                <mxCell id="201" value="boolean" style="shape=partialRectangle;html=1;whiteSpace=wrap;connectable=0;fillColor=none;top=0;left=0;bottom=0;right=0;overflow=hidden;" parent="199" vertex="1">
                    <mxGeometry x="80" width="80" height="24" as="geometry"/>
                </mxCell>
                <mxCell id="202" value="" style="endArrow=none;html=1;" parent="1" source="126" target="194" edge="1">
                    <mxGeometry width="50" height="50" relative="1" as="geometry">
                        <mxPoint x="-136" y="-642.5882352941176" as="sourcePoint"/>
                        <mxPoint x="-220" y="-643.205882352941" as="targetPoint"/>
                    </mxGeometry>
                </mxCell>
                <mxCell id="203" value="" style="endArrow=none;html=1;" parent="1" source="186" target="194" edge="1">
                    <mxGeometry width="50" height="50" relative="1" as="geometry">
                        <mxPoint x="-436" y="-643.3898305084745" as="sourcePoint"/>
                        <mxPoint x="-602" y="-642.4519774011301" as="targetPoint"/>
                    </mxGeometry>
                </mxCell>
                <mxCell id="213" value="Contenir" style="swimlane;fontStyle=1;childLayout=stackLayout;horizontal=1;startSize=26;horizontalStack=0;resizeParent=1;resizeParentMax=0;resizeLast=0;collapsible=1;marginBottom=0;align=center;fontSize=14;rounded=1;swimlaneFillColor=#ffffff;" parent="1" vertex="1">
                    <mxGeometry x="-732" y="-680" width="160" height="50" as="geometry"/>
                </mxCell>
                <mxCell id="214" value="" style="shape=table;html=1;whiteSpace=wrap;startSize=0;container=1;collapsible=0;childLayout=tableLayout;fillColor=none;strokeColor=none;" parent="213" vertex="1">
                    <mxGeometry y="26" width="160" height="24" as="geometry"/>
                </mxCell>
                <mxCell id="215" value="" style="shape=partialRectangle;html=1;whiteSpace=wrap;collapsible=0;dropTarget=0;pointerEvents=0;fillColor=none;top=0;left=0;bottom=0;right=0;points=[[0,0.5],[1,0.5]];portConstraint=eastwest;" parent="214" vertex="1">
                    <mxGeometry width="160" height="24" as="geometry"/>
                </mxCell>
                <mxCell id="216" value="" style="shape=partialRectangle;html=1;whiteSpace=wrap;connectable=0;fillColor=none;top=0;left=0;bottom=0;right=0;overflow=hidden;strokeColor=none;" parent="215" vertex="1">
                    <mxGeometry width="80" height="24" as="geometry"/>
                </mxCell>
                <mxCell id="217" value="" style="shape=partialRectangle;html=1;whiteSpace=wrap;connectable=0;fillColor=none;top=0;left=0;bottom=0;right=0;overflow=hidden;" parent="215" vertex="1">
                    <mxGeometry x="80" width="80" height="24" as="geometry"/>
                </mxCell>
                <mxCell id="218" value="" style="endArrow=none;html=1;" parent="1" source="178" target="213" edge="1">
                    <mxGeometry width="50" height="50" relative="1" as="geometry">
                        <mxPoint x="-682" y="-740" as="sourcePoint"/>
                        <mxPoint x="-682" y="-679" as="targetPoint"/>
                    </mxGeometry>
                </mxCell>
                <mxCell id="219" value="" style="endArrow=none;html=1;" parent="1" source="213" target="186" edge="1">
                    <mxGeometry width="50" height="50" relative="1" as="geometry">
                        <mxPoint x="-675.5" y="-935" as="sourcePoint"/>
                        <mxPoint x="-679.5" y="-895" as="targetPoint"/>
                    </mxGeometry>
                </mxCell>
                <mxCell id="220" value="Être" style="swimlane;fontStyle=1;childLayout=stackLayout;horizontal=1;startSize=26;horizontalStack=0;resizeParent=1;resizeParentMax=0;resizeLast=0;collapsible=1;marginBottom=0;align=center;fontSize=14;rounded=1;swimlaneFillColor=#ffffff;" parent="1" vertex="1">
                    <mxGeometry x="-732" y="-1010" width="160" height="50" as="geometry"/>
                </mxCell>
                <mxCell id="221" value="" style="shape=table;html=1;whiteSpace=wrap;startSize=0;container=1;collapsible=0;childLayout=tableLayout;fillColor=none;strokeColor=none;" parent="220" vertex="1">
                    <mxGeometry y="26" width="160" height="24" as="geometry"/>
                </mxCell>
                <mxCell id="222" value="" style="shape=partialRectangle;html=1;whiteSpace=wrap;collapsible=0;dropTarget=0;pointerEvents=0;fillColor=none;top=0;left=0;bottom=0;right=0;points=[[0,0.5],[1,0.5]];portConstraint=eastwest;" parent="221" vertex="1">
                    <mxGeometry width="160" height="24" as="geometry"/>
                </mxCell>
                <mxCell id="223" value="" style="shape=partialRectangle;html=1;whiteSpace=wrap;connectable=0;fillColor=none;top=0;left=0;bottom=0;right=0;overflow=hidden;strokeColor=none;" parent="222" vertex="1">
                    <mxGeometry width="80" height="24" as="geometry"/>
                </mxCell>
                <mxCell id="224" value="" style="shape=partialRectangle;html=1;whiteSpace=wrap;connectable=0;fillColor=none;top=0;left=0;bottom=0;right=0;overflow=hidden;" parent="222" vertex="1">
                    <mxGeometry x="80" width="80" height="24" as="geometry"/>
                </mxCell>
                <mxCell id="225" value="" style="endArrow=none;html=1;" parent="1" source="220" target="178" edge="1">
                    <mxGeometry width="50" height="50" relative="1" as="geometry">
                        <mxPoint x="-642" y="-780" as="sourcePoint"/>
                        <mxPoint x="-642" y="-670" as="targetPoint"/>
                    </mxGeometry>
                </mxCell>
                <mxCell id="226" value="" style="endArrow=none;html=1;" parent="1" source="107" target="220" edge="1">
                    <mxGeometry width="50" height="50" relative="1" as="geometry">
                        <mxPoint x="-632" y="-770" as="sourcePoint"/>
                        <mxPoint x="-632" y="-660" as="targetPoint"/>
                    </mxGeometry>
                </mxCell>
                <mxCell id="232" value="Participer" style="swimlane;fontStyle=1;childLayout=stackLayout;horizontal=1;startSize=26;horizontalStack=0;resizeParent=1;resizeParentMax=0;resizeLast=0;collapsible=1;marginBottom=0;align=center;fontSize=14;rounded=1;swimlaneFillColor=#ffffff;" parent="1" vertex="1">
                    <mxGeometry x="-150" y="-679" width="160" height="50" as="geometry"/>
                </mxCell>
                <mxCell id="233" value="" style="shape=table;html=1;whiteSpace=wrap;startSize=0;container=1;collapsible=0;childLayout=tableLayout;fillColor=none;strokeColor=none;" parent="232" vertex="1">
                    <mxGeometry y="26" width="160" height="24" as="geometry"/>
                </mxCell>
                <mxCell id="234" value="" style="shape=partialRectangle;html=1;whiteSpace=wrap;collapsible=0;dropTarget=0;pointerEvents=0;fillColor=none;top=0;left=0;bottom=0;right=0;points=[[0,0.5],[1,0.5]];portConstraint=eastwest;" parent="233" vertex="1">
                    <mxGeometry width="160" height="24" as="geometry"/>
                </mxCell>
                <mxCell id="235" value="" style="shape=partialRectangle;html=1;whiteSpace=wrap;connectable=0;fillColor=none;top=0;left=0;bottom=0;right=0;overflow=hidden;strokeColor=none;" parent="234" vertex="1">
                    <mxGeometry width="80" height="24" as="geometry"/>
                </mxCell>
                <mxCell id="236" value="" style="shape=partialRectangle;html=1;whiteSpace=wrap;connectable=0;fillColor=none;top=0;left=0;bottom=0;right=0;overflow=hidden;" parent="234" vertex="1">
                    <mxGeometry x="80" width="80" height="24" as="geometry"/>
                </mxCell>
                <mxCell id="237" value="" style="endArrow=none;html=1;" parent="1" source="126" target="232" edge="1">
                    <mxGeometry width="50" height="50" relative="1" as="geometry">
                        <mxPoint x="-320" y="-679" as="sourcePoint"/>
                        <mxPoint x="-328" y="-750" as="targetPoint"/>
                    </mxGeometry>
                </mxCell>
                <mxCell id="238" value="" style="endArrow=none;html=1;" parent="1" source="232" target="78" edge="1">
                    <mxGeometry width="50" height="50" relative="1" as="geometry">
                        <mxPoint x="-318" y="-669" as="sourcePoint"/>
                        <mxPoint x="-318" y="-740" as="targetPoint"/>
                    </mxGeometry>
                </mxCell>
                <mxCell id="240" value="" style="shape=table;html=1;whiteSpace=wrap;startSize=0;container=1;collapsible=0;childLayout=tableLayout;" parent="1" vertex="1">
                    <mxGeometry x="290" y="-1040" width="220" height="160" as="geometry"/>
                </mxCell>
                <mxCell id="241" value="" style="shape=partialRectangle;html=1;whiteSpace=wrap;collapsible=0;dropTarget=0;pointerEvents=0;fillColor=none;top=0;left=0;bottom=0;right=0;points=[[0,0.5],[1,0.5]];portConstraint=eastwest;" parent="240" vertex="1">
                    <mxGeometry width="220" height="32" as="geometry"/>
                </mxCell>
                <mxCell id="243" value="Auteur" style="shape=partialRectangle;html=1;whiteSpace=wrap;connectable=0;fillColor=none;top=0;left=0;bottom=0;right=0;overflow=hidden;" parent="241" vertex="1">
                    <mxGeometry width="70" height="32" as="geometry"/>
                </mxCell>
                <mxCell id="244" value="Yoann BONZON" style="shape=partialRectangle;html=1;whiteSpace=wrap;connectable=0;fillColor=none;top=0;left=0;bottom=0;right=0;overflow=hidden;" parent="241" vertex="1">
                    <mxGeometry x="70" width="150" height="32" as="geometry"/>
                </mxCell>
                <mxCell id="256" style="shape=partialRectangle;html=1;whiteSpace=wrap;collapsible=0;dropTarget=0;pointerEvents=0;fillColor=none;top=0;left=0;bottom=0;right=0;points=[[0,0.5],[1,0.5]];portConstraint=eastwest;" parent="240" vertex="1">
                    <mxGeometry y="32" width="220" height="32" as="geometry"/>
                </mxCell>
                <mxCell id="257" value="Co-Auteur" style="shape=partialRectangle;html=1;whiteSpace=wrap;connectable=0;fillColor=none;top=0;left=0;bottom=0;right=0;overflow=hidden;" parent="256" vertex="1">
                    <mxGeometry width="70" height="32" as="geometry"/>
                </mxCell>
                <mxCell id="258" value="Kenan AUGSBURGER" style="shape=partialRectangle;html=1;whiteSpace=wrap;connectable=0;fillColor=none;top=0;left=0;bottom=0;right=0;overflow=hidden;" parent="256" vertex="1">
                    <mxGeometry x="70" width="150" height="32" as="geometry"/>
                </mxCell>
                <mxCell id="245" value="" style="shape=partialRectangle;html=1;whiteSpace=wrap;collapsible=0;dropTarget=0;pointerEvents=0;fillColor=none;top=0;left=0;bottom=0;right=0;points=[[0,0.5],[1,0.5]];portConstraint=eastwest;" parent="240" vertex="1">
                    <mxGeometry y="64" width="220" height="32" as="geometry"/>
                </mxCell>
                <mxCell id="247" value="Projet" style="shape=partialRectangle;html=1;whiteSpace=wrap;connectable=0;fillColor=none;top=0;left=0;bottom=0;right=0;overflow=hidden;" parent="245" vertex="1">
                    <mxGeometry width="70" height="32" as="geometry"/>
                </mxCell>
                <mxCell id="248" value="MCD ELAN" style="shape=partialRectangle;html=1;whiteSpace=wrap;connectable=0;fillColor=none;top=0;left=0;bottom=0;right=0;overflow=hidden;" parent="245" vertex="1">
                    <mxGeometry x="70" width="150" height="32" as="geometry"/>
                </mxCell>
                <mxCell id="253" style="shape=partialRectangle;html=1;whiteSpace=wrap;collapsible=0;dropTarget=0;pointerEvents=0;fillColor=none;top=0;left=0;bottom=0;right=0;points=[[0,0.5],[1,0.5]];portConstraint=eastwest;" parent="240" vertex="1">
                    <mxGeometry y="96" width="220" height="32" as="geometry"/>
                </mxCell>
                <mxCell id="254" value="Date" style="shape=partialRectangle;html=1;whiteSpace=wrap;connectable=0;fillColor=none;top=0;left=0;bottom=0;right=0;overflow=hidden;" parent="253" vertex="1">
                    <mxGeometry width="70" height="32" as="geometry"/>
                </mxCell>
                <mxCell id="255" value="26.04.2021" style="shape=partialRectangle;html=1;whiteSpace=wrap;connectable=0;fillColor=none;top=0;left=0;bottom=0;right=0;overflow=hidden;" parent="253" vertex="1">
                    <mxGeometry x="70" width="150" height="32" as="geometry"/>
                </mxCell>
                <mxCell id="249" value="" style="shape=partialRectangle;html=1;whiteSpace=wrap;collapsible=0;dropTarget=0;pointerEvents=0;fillColor=none;top=0;left=0;bottom=0;right=0;points=[[0,0.5],[1,0.5]];portConstraint=eastwest;" parent="240" vertex="1">
                    <mxGeometry y="128" width="220" height="32" as="geometry"/>
                </mxCell>
                <mxCell id="251" value="Version" style="shape=partialRectangle;html=1;whiteSpace=wrap;connectable=0;fillColor=none;top=0;left=0;bottom=0;right=0;overflow=hidden;" parent="249" vertex="1">
                    <mxGeometry width="70" height="32" as="geometry"/>
                </mxCell>
                <mxCell id="252" value="Version 1.0.2" style="shape=partialRectangle;html=1;whiteSpace=wrap;connectable=0;fillColor=none;top=0;left=0;bottom=0;right=0;overflow=hidden;" parent="249" vertex="1">
                    <mxGeometry x="70" width="150" height="32" as="geometry"/>
                </mxCell>
                <mxCell id="YIZ49bOPCpDxyb6yTQep-258" value="0,n" style="text;html=1;strokeColor=none;fillColor=none;align=center;verticalAlign=middle;whiteSpace=wrap;rounded=0;" parent="1" vertex="1">
                    <mxGeometry x="790" y="-610" width="40" height="20" as="geometry"/>
                </mxCell>
                <mxCell id="YIZ49bOPCpDxyb6yTQep-259" value="1,1" style="text;html=1;strokeColor=none;fillColor=none;align=center;verticalAlign=middle;whiteSpace=wrap;rounded=0;" parent="1" vertex="1">
                    <mxGeometry x="680" y="-730" width="40" height="20" as="geometry"/>
                </mxCell>
                <mxCell id="YIZ49bOPCpDxyb6yTQep-260" value="1,1" style="text;html=1;strokeColor=none;fillColor=none;align=center;verticalAlign=middle;whiteSpace=wrap;rounded=0;" parent="1" vertex="1">
                    <mxGeometry x="790" y="-995" width="40" height="20" as="geometry"/>
                </mxCell>
                <mxCell id="YIZ49bOPCpDxyb6yTQep-261" value="0,n" style="text;html=1;strokeColor=none;fillColor=none;align=center;verticalAlign=middle;whiteSpace=wrap;rounded=0;" parent="1" vertex="1">
                    <mxGeometry x="675" y="-835" width="40" height="20" as="geometry"/>
                </mxCell>
                <mxCell id="YIZ49bOPCpDxyb6yTQep-262" value="0,n" style="text;html=1;strokeColor=none;fillColor=none;align=center;verticalAlign=middle;whiteSpace=wrap;rounded=0;" parent="1" vertex="1">
                    <mxGeometry x="530" y="-965" width="40" height="20" as="geometry"/>
                </mxCell>
                <mxCell id="YIZ49bOPCpDxyb6yTQep-263" value="0,n" style="text;html=1;strokeColor=none;fillColor=none;align=center;verticalAlign=middle;whiteSpace=wrap;rounded=0;" parent="1" vertex="1">
                    <mxGeometry x="530" y="-639" width="40" height="20" as="geometry"/>
                </mxCell>
                <mxCell id="YIZ49bOPCpDxyb6yTQep-264" value="1,n" style="text;html=1;strokeColor=none;fillColor=none;align=center;verticalAlign=middle;whiteSpace=wrap;rounded=0;" parent="1" vertex="1">
                    <mxGeometry x="-10" y="-530" width="40" height="20" as="geometry"/>
                </mxCell>
                <mxCell id="YIZ49bOPCpDxyb6yTQep-265" value="0,n" style="text;html=1;strokeColor=none;fillColor=none;align=center;verticalAlign=middle;whiteSpace=wrap;rounded=0;" parent="1" vertex="1">
                    <mxGeometry x="-380" y="-594.5" width="40" height="20" as="geometry"/>
                </mxCell>
                <mxCell id="YIZ49bOPCpDxyb6yTQep-266" value="1,n" style="text;html=1;strokeColor=none;fillColor=none;align=center;verticalAlign=middle;whiteSpace=wrap;rounded=0;" parent="1" vertex="1">
                    <mxGeometry x="-500" y="-520" width="40" height="20" as="geometry"/>
                </mxCell>
                <mxCell id="YIZ49bOPCpDxyb6yTQep-267" value="1,n" style="text;html=1;strokeColor=none;fillColor=none;align=center;verticalAlign=middle;whiteSpace=wrap;rounded=0;" parent="1" vertex="1">
                    <mxGeometry x="-650" y="-743" width="40" height="20" as="geometry"/>
                </mxCell>
                <mxCell id="YIZ49bOPCpDxyb6yTQep-268" value="1,1" style="text;html=1;strokeColor=none;fillColor=none;align=center;verticalAlign=middle;whiteSpace=wrap;rounded=0;" parent="1" vertex="1">
                    <mxGeometry x="-650" y="-604.5" width="40" height="20" as="geometry"/>
                </mxCell>
                <mxCell id="YIZ49bOPCpDxyb6yTQep-269" value="0,n" style="text;html=1;strokeColor=none;fillColor=none;align=center;verticalAlign=middle;whiteSpace=wrap;rounded=0;" parent="1" vertex="1">
                    <mxGeometry x="-530" y="-980" width="40" height="20" as="geometry"/>
                </mxCell>
                <mxCell id="YIZ49bOPCpDxyb6yTQep-270" value="1,n" style="text;html=1;strokeColor=none;fillColor=none;align=center;verticalAlign=middle;whiteSpace=wrap;rounded=0;" parent="1" vertex="1">
                    <mxGeometry x="-650" y="-920" width="40" height="20" as="geometry"/>
                </mxCell>
                <mxCell id="YIZ49bOPCpDxyb6yTQep-275" value="1,n" style="text;html=1;strokeColor=none;fillColor=none;align=center;verticalAlign=middle;whiteSpace=wrap;rounded=0;" parent="1" vertex="1">
                    <mxGeometry x="-380" y="-740" width="40" height="20" as="geometry"/>
                </mxCell>
                <mxCell id="YIZ49bOPCpDxyb6yTQep-276" value="0,n" style="text;html=1;strokeColor=none;fillColor=none;align=center;verticalAlign=middle;whiteSpace=wrap;rounded=0;" parent="1" vertex="1">
                    <mxGeometry x="-380" y="-880" width="40" height="20" as="geometry"/>
                </mxCell>
                <mxCell id="YIZ49bOPCpDxyb6yTQep-277" value="1,n" style="text;html=1;strokeColor=none;fillColor=none;align=center;verticalAlign=middle;whiteSpace=wrap;rounded=0;" parent="1" vertex="1">
                    <mxGeometry x="-220" y="-1000" width="40" height="20" as="geometry"/>
                </mxCell>
                <mxCell id="YIZ49bOPCpDxyb6yTQep-278" value="0,n" style="text;html=1;strokeColor=none;fillColor=none;align=center;verticalAlign=middle;whiteSpace=wrap;rounded=0;" parent="1" vertex="1">
                    <mxGeometry y="-1000" width="40" height="20" as="geometry"/>
                </mxCell>
                <mxCell id="YIZ49bOPCpDxyb6yTQep-281" value="1,1" style="text;html=1;strokeColor=none;fillColor=none;align=center;verticalAlign=middle;whiteSpace=wrap;rounded=0;" parent="1" vertex="1">
                    <mxGeometry x="380" y="-780" width="40" height="20" as="geometry"/>
                </mxCell>
                <mxCell id="YIZ49bOPCpDxyb6yTQep-282" value="1,n" style="text;html=1;strokeColor=none;fillColor=none;align=center;verticalAlign=middle;whiteSpace=wrap;rounded=0;" parent="1" vertex="1">
                    <mxGeometry x="250" y="-740" width="40" height="20" as="geometry"/>
                </mxCell>
                <mxCell id="YIZ49bOPCpDxyb6yTQep-283" value="1,n" style="text;html=1;strokeColor=none;fillColor=none;align=center;verticalAlign=middle;whiteSpace=wrap;rounded=0;" parent="1" vertex="1">
                    <mxGeometry x="160" y="-772" width="40" height="20" as="geometry"/>
                </mxCell>
                <mxCell id="YIZ49bOPCpDxyb6yTQep-284" value="1,1" style="text;html=1;strokeColor=none;fillColor=none;align=center;verticalAlign=middle;whiteSpace=wrap;rounded=0;" parent="1" vertex="1">
                    <mxGeometry x="160" y="-920" width="40" height="20" as="geometry"/>
                </mxCell>
                <mxCell id="YIZ49bOPCpDxyb6yTQep-285" value="1,n" style="text;html=1;strokeColor=none;fillColor=none;align=center;verticalAlign=middle;whiteSpace=wrap;rounded=0;" parent="1" vertex="1">
                    <mxGeometry y="-787" width="40" height="20" as="geometry"/>
                </mxCell>
                <mxCell id="YIZ49bOPCpDxyb6yTQep-286" value="1,n" style="text;html=1;strokeColor=none;fillColor=none;align=center;verticalAlign=middle;whiteSpace=wrap;rounded=0;" parent="1" vertex="1">
                    <mxGeometry x="-190" y="-912" width="40" height="20" as="geometry"/>
                </mxCell>
                <mxCell id="YIZ49bOPCpDxyb6yTQep-287" value="0,n" style="text;html=1;strokeColor=none;fillColor=none;align=center;verticalAlign=middle;whiteSpace=wrap;rounded=0;" parent="1" vertex="1">
                    <mxGeometry x="18" y="-674" width="40" height="20" as="geometry"/>
                </mxCell>
                <mxCell id="YIZ49bOPCpDxyb6yTQep-288" value="0,n" style="text;html=1;strokeColor=none;fillColor=none;align=center;verticalAlign=middle;whiteSpace=wrap;rounded=0;" parent="1" vertex="1">
                    <mxGeometry x="-210" y="-674" width="40" height="20" as="geometry"/>
                </mxCell>
                <mxCell id="YIZ49bOPCpDxyb6yTQep-289" value="1,n" style="text;html=1;strokeColor=none;fillColor=none;align=center;verticalAlign=middle;whiteSpace=wrap;rounded=0;" parent="1" vertex="1">
                    <mxGeometry x="58" y="-1110" width="40" height="20" as="geometry"/>
                </mxCell>
            </root>
        </mxGraphModel>
    </diagram>
</mxfile>